<svg id="Layer_1" height="512" viewBox="0 0 128 128" width="512" xmlns="http://www.w3.org/2000/svg" data-name="Layer 1"><path d="m98.335 32.175h-4.135l-4.512-16.412a5.859 5.859 0 0 0 -5.634-4.292h-40.109a5.859 5.859 0 0 0 -5.634 4.292l-4.511 16.412h-4.13a1.75 1.75 0 0 0 -1.75 1.75v8.927a1.75 1.75 0 0 0 1.75 1.75h2.091l5.193 65.546a6.96 6.96 0 0 0 6.9 6.38h40.293a6.96 6.96 0 0 0 6.9-6.38l5.197-65.548h2.091a1.75 1.75 0 0 0 1.75-1.75v-8.925a1.75 1.75 0 0 0 -1.75-1.75zm-24.475-17.204-.821 9.037h-18.078l-.821-9.037zm-32.173 1.722a2.35 2.35 0 0 1 2.259-1.722h6.68l.995 10.945a1.75 1.75 0 0 0 1.743 1.592h21.273a1.75 1.75 0 0 0 1.743-1.592l.995-10.945h6.68a2.35 2.35 0 0 1 2.259 1.721l4.261 15.483h-53.149zm14.688 96.336h-7.25v-53.154a3.625 3.625 0 0 1 7.25 0zm22.5 0h-7.25v-53.154a3.625 3.625 0 0 1 7.25 0zm8.688-3.156a3.444 3.444 0 0 1 -3.416 3.156h-1.772v-53.154a7.125 7.125 0 0 0 -14.25 0v53.154h-8.25v-53.154a7.125 7.125 0 0 0 -14.25 0v53.154h-1.772a3.444 3.444 0 0 1 -3.416-3.156l-5.171-65.273h57.468zm9.022-68.773h-65.17v-5.425h65.17z"/></svg>