<?xml version="1.0" encoding="iso-8859-1"?>
<!-- Generator: Adobe Illustrator 19.0.0, SVG Export Plug-In . SVG Version: 6.00 Build 0)  -->
<svg version="1.1" id="Layer_1" xmlns="http://www.w3.org/2000/svg" xmlns:xlink="http://www.w3.org/1999/xlink" x="0px" y="0px"
	 viewBox="0 0 496.2 496.2" style="enable-background:new 0 0 496.2 496.2;" xml:space="preserve">
<path style="fill:#32BEA6;" d="M496.2,248.1C496.2,111.1,385.1,0,248.1,0S0,111.1,0,248.1s111.1,248.1,248.1,248.1
	S496.2,385.1,496.2,248.1z"/>
<path style="fill:#FFFFFF;" d="M326.1,411.2c0,7.7-6.2,13.9-13.9,13.9H184c-7.7,0-13.9-6.2-13.9-13.9V85c0-7.7,6.2-13.9,13.9-13.9
	h128.3c7.7,0,13.9,6.2,13.9,13.9v326.2H326.1z"/>
<rect x="170.1" y="186.5" style="fill:#CCCACA;" width="156.1" height="4.5"/>
<path style="fill:#C1C1C1;" d="M194,149.4c0,16.7-2.4,23.2-5.3,23.2c-2.9,0-5.3-6.5-5.3-23.2s2.4-23.2,5.3-23.2
	C191.7,126.2,194,132.7,194,149.4z"/>
<path style="fill:#E0DEDE;" d="M188.8,172.6c-2.9,0-5.3-6.5-5.3-23.2s2.4-23.2,5.3-23.2S191.7,172.6,188.8,172.6z"/>
<path style="fill:#C1C1C1;" d="M194,228.2c0,16.7-2.4,23.2-5.3,23.2c-2.9,0-5.3-6.5-5.3-23.2s2.4-23.2,5.3-23.2
	C191.7,205.1,194,211.5,194,228.2z"/>
<path style="fill:#E0DEDE;" d="M188.8,251.4c-2.9,0-5.3-6.5-5.3-23.2s2.4-23.2,5.3-23.2C191.7,205.1,191.7,251.4,188.8,251.4z"/>
<g>
</g>
<g>
</g>
<g>
</g>
<g>
</g>
<g>
</g>
<g>
</g>
<g>
</g>
<g>
</g>
<g>
</g>
<g>
</g>
<g>
</g>
<g>
</g>
<g>
</g>
<g>
</g>
<g>
</g>
</svg>
