<svg id="Layer_1" height="512" viewBox="0 0 128 128" width="512" xmlns="http://www.w3.org/2000/svg" xmlns:xlink="http://www.w3.org/1999/xlink" data-name="Layer 1"><linearGradient id="linear-gradient" gradientUnits="userSpaceOnUse" x1="101.632" x2="26.368" y1="101.896" y2="26.633"><stop offset="0" stop-color="#5cd7d1"/><stop offset="1" stop-color="#f9bc2c"/></linearGradient><path d="m98.335 32.175h-4.135l-4.512-16.412a5.859 5.859 0 0 0 -5.634-4.292h-40.109a5.859 5.859 0 0 0 -5.634 4.292l-4.511 16.412h-4.13a1.75 1.75 0 0 0 -1.75 1.75v8.927a1.75 1.75 0 0 0 1.75 1.75h2.091l5.193 65.546a6.96 6.96 0 0 0 6.9 6.38h40.293a6.96 6.96 0 0 0 6.9-6.38l4.78-60.336a1.75 1.75 0 1 0 -3.488-.276l-4.78 60.336a3.444 3.444 0 0 1 -3.416 3.156h-1.768v-53.153a7.125 7.125 0 0 0 -14.25 0v40.063a1.75 1.75 0 1 0 3.5 0v-40.063a3.625 3.625 0 0 1 7.25 0v53.154h-19v-53.154a7.125 7.125 0 0 0 -14.25 0v46.875a1.75 1.75 0 0 0 3.5 0v-46.875a3.625 3.625 0 0 1 7.25 0v53.154h-12.522a3.444 3.444 0 0 1 -3.416-3.156l-5.171-65.273h63.069a1.75 1.75 0 0 0 1.75-1.75v-8.925a1.75 1.75 0 0 0 -1.75-1.75zm-1.75 8.925h-65.17v-5.425h10.585a1.75 1.75 0 0 0 0-3.5h-4.574l4.261-15.482a2.35 2.35 0 0 1 2.259-1.722h29.914l-.821 9.037h-18.078l-.425-4.677a1.75 1.75 0 0 0 -3.486.317l.57 6.269a1.75 1.75 0 0 0 1.743 1.591h21.274a1.75 1.75 0 0 0 1.743-1.592l.995-10.945h6.68a2.35 2.35 0 0 1 2.259 1.721l4.261 15.483h-35.825a1.75 1.75 0 0 0 0 3.5h41.835zm-46.127-7.175a1.75 1.75 0 0 1 -1.75 1.75h-.458a1.75 1.75 0 0 1 0-3.5h.458a1.75 1.75 0 0 1 1.75 1.75zm17.667 72.825v-.75a1.75 1.75 0 0 1 3.5 0v.75a1.75 1.75 0 0 1 -3.5 0z" fill="url(#linear-gradient)"/></svg>